<svg xmlns="http://www.w3.org/2000/svg" width="98" height="96" viewBox="0 0 98 96">
  <path fill="#ffffff" fill-rule="evenodd" clip-rule="evenodd" d="M48.859 0C21.839 0 0 22 0 49.217c0 21.756 
           13.993 40.172 33.405 46.69 2.427.49 3.316-1.059 
           3.316-2.362 0-1.142-.08-5.052-.08-9.127-13.59 
           2.934-16.42-5.867-16.42-5.867-2.184-5.705-5.42-7.17-5.42-7.17-4.448-3.015.324-3.015.324-3.015 
           4.934.326 7.523 5.053 7.523 5.053 4.367 7.496 
           11.404 5.378 14.235 4.074.404-3.178 
           1.699-5.378 3.073-6.6-10.839-1.142-22.24-5.379-22.24-24.242 
           0-5.378 1.94-9.778 5.014-13.2-.485-1.222-2.184-6.275.486-13.038 
           0 0 4.125-1.304 13.426 5.053a45.863 45.863 0 0 1 12.2-1.63c4.125 0 
           8.33.571 12.2 1.63 9.3-6.357 13.426-5.053 
           13.426-5.053 2.67 6.763.97 11.816.485 13.038 
           3.154 3.422 5.014 7.822 5.014 13.2 
           0 18.863-11.404 23.02-22.324 24.242 
           1.78 1.548 3.396 4.481 3.396 9.126 
           0 6.6-.08 11.897-.08 13.52 
           0 1.304.89 2.853 3.316 2.362C82.007 
           89.39 96 70.973 96 49.217 96 22 
           74.178 0 48.859 0z"></path>
</svg>
