<svg xmlns="http://www.w3.org/2000/svg" viewBox="0 0 448 512">
  <path d="M100.28 448H7.4V148.9h92.88zM53.79 
           108.1C24.09 108.1 0 83.5 0 53.8a53.8 53.8 
           0 01107.59 0c0 29.7-24.1 54.3-53.8 54.3zM447.9 
           448h-92.4V304.1c0-34.3-12.3-57.7-43.1-57.7-23.5 
           0-37.6 15.8-43.7 31.1-2.3 5.5-2.9 13.1-2.9 
           20.7V448h-92.4s1.2-269.6 0-296.1h92.4v42c12.3-19 
           34.2-46.1 83.3-46.1 60.9 0 106.5 39.8 
           106.5 125.4V448z" fill="#0A66C2"></path>
</svg>
